<svg width="147" height="32" viewBox="0 0 147 32" fill="none" xmlns="http://www.w3.org/2000/svg">
<path d="M15.1897 19.6028V20.5898L15.9854 20.0059L20.8957 16.4031L21.4451 16L20.8957 15.5969L15.9854 11.9941L15.1897 11.4102V12.3972V19.6028ZM15.1152 10.947C15.1153 10.947 15.1154 10.9471 15.1155 10.9472L21.7517 15.8155C21.7517 15.8155 21.7518 15.8156 21.7519 15.8156C21.7839 15.8393 21.8276 15.9032 21.8276 16C21.8276 16.0967 21.784 16.1606 21.7519 16.1843C21.7519 16.1844 21.7518 16.1845 21.7517 16.1845L15.1159 21.0526C15.1157 21.0527 15.1156 21.0528 15.1154 21.0529C15.0991 21.0646 15.0887 21.0652 15.0862 21.0652C15.0838 21.0652 15.0812 21.0649 15.0779 21.064C15.0747 21.063 15.0698 21.0611 15.0631 21.057C15.0324 21.0372 14.9828 20.9739 14.9828 20.8696V11.1304C14.9828 11.0266 15.032 10.9631 15.0626 10.9429C15.0754 10.9352 15.0833 10.9348 15.0869 10.935C15.0908 10.9351 15.1004 10.9363 15.1152 10.947Z" fill="#424242" stroke="black"/>
<path d="M6.03448 15.8043H6.53448V15.3043V9.04348V8.54348H6.03448H1.2069H0.706897V9.04348V15.3043V15.8043H1.2069H6.03448ZM1.2069 16.1957H0.706897V16.6957V22.9565V23.4565H1.2069H6.03448H6.53448V22.9565V16.6957V16.1957H6.03448H1.2069ZM7.24138 0.891304H6.74138V1.3913V8.34783V16V23.6522V30.6087V31.1087H7.24138H27.7586H28.2586V30.6087V23.6522V16V8.34783V1.3913V0.891304H27.7586H7.24138ZM33.7931 15.8043H34.2931V15.3043V9.04348V8.54348H33.7931H28.9655H28.4655V9.04348V15.3043V15.8043H28.9655H33.7931ZM28.9655 16.1957H28.4655V16.6957V22.9565V23.4565H28.9655H33.7931H34.2931V22.9565V16.6957V16.1957H33.7931H28.9655ZM34.2931 1.3913V0.891304H33.7931H28.9655H28.4655V1.3913V7.65217V8.15217H28.9655H33.7931H34.2931V7.65217V1.3913ZM1.2069 0.891304H0.706897V1.3913V7.65217V8.15217H1.2069H6.03448H6.53448V7.65217V1.3913V0.891304H6.03448H1.2069ZM0.706897 30.6087V31.1087H1.2069H6.03448H6.53448V30.6087V24.3478V23.8478H6.03448H1.2069H0.706897V24.3478V30.6087ZM33.7931 31.1087H34.2931V30.6087V24.3478V23.8478H33.7931H28.9655H28.4655V24.3478V30.6087V31.1087H28.9655H33.7931ZM28.3621 0.5H34.3966C34.4002 0.5 34.4188 0.500505 34.4456 0.53133C34.4732 0.56315 34.5 0.619623 34.5 0.695652V8.34783V16V23.6522V31.3043C34.5 31.3804 34.4732 31.4369 34.4456 31.4687C34.4188 31.4995 34.4002 31.5 34.3966 31.5H28.3621H6.63793H0.603448C0.599806 31.5 0.581153 31.4995 0.554395 31.4687C0.526774 31.4369 0.5 31.3804 0.5 31.3043V23.6522V16V8.34783V0.695652C0.5 0.619623 0.526774 0.56315 0.554395 0.53133C0.581153 0.500505 0.599806 0.5 0.603448 0.5H6.63793H28.3621Z" fill="#424242" stroke="black"/>
<path d="M42.5449 11.3145V16.1875H48.4922V17.7109H42.5449V24H40.6504V9.78125H42.5449H49.459V11.3145H42.5449ZM52.5059 9.58594C52.8444 9.58594 53.1081 9.68359 53.2969 9.87891C53.4922 10.0742 53.5898 10.3216 53.5898 10.6211C53.5898 10.9141 53.4922 11.1582 53.2969 11.3535C53.1081 11.5423 52.8444 11.6367 52.5059 11.6367C52.1673 11.6367 51.9036 11.5423 51.7148 11.3535C51.5326 11.1582 51.4414 10.9141 51.4414 10.6211C51.4414 10.3216 51.5326 10.0742 51.7148 9.87891C51.9036 9.68359 52.1673 9.58594 52.5059 9.58594ZM51.5781 24V13.4336H53.4043V24H51.5781ZM56.4414 24V9H58.2676V24H56.4414ZM72.418 13.2383C73.5768 13.2383 74.4557 13.5475 75.0547 14.166C75.6536 14.7845 75.9531 15.748 75.9531 17.0566V24H74.127V17.0371C74.127 16.1973 73.9349 15.6081 73.5508 15.2695C73.1732 14.9245 72.6165 14.752 71.8809 14.752C71.4121 14.752 71.002 14.8529 70.6504 15.0547C70.2988 15.25 70.0221 15.5169 69.8203 15.8555C69.625 16.194 69.5046 16.5749 69.459 16.998V24H67.6328V17.0469C67.6328 15.5169 66.8809 14.752 65.377 14.752C64.7715 14.752 64.2702 14.8854 63.873 15.1523C63.4759 15.4128 63.1732 15.7773 62.9648 16.2461V24H61.1387V13.4336H62.8672L62.9258 14.5762C63.2904 14.1465 63.7331 13.8177 64.2539 13.5898C64.7747 13.3555 65.3704 13.2383 66.041 13.2383C66.7376 13.2383 67.3464 13.3783 67.8672 13.6582C68.3945 13.9316 68.7917 14.3516 69.0586 14.918C69.4232 14.3971 69.8887 13.987 70.4551 13.6875C71.028 13.388 71.6823 13.2383 72.418 13.2383ZM92.5645 22.4766V24H85.4551H83.9316V9.78125H85.8262V22.4766H92.5645ZM95.5137 9.58594C95.8522 9.58594 96.1159 9.68359 96.3047 9.87891C96.5 10.0742 96.5977 10.3216 96.5977 10.6211C96.5977 10.9141 96.5 11.1582 96.3047 11.3535C96.1159 11.5423 95.8522 11.6367 95.5137 11.6367C95.1751 11.6367 94.9115 11.5423 94.7227 11.3535C94.5404 11.1582 94.4492 10.9141 94.4492 10.6211C94.4492 10.3216 94.5404 10.0742 94.7227 9.87891C94.9115 9.68359 95.1751 9.58594 95.5137 9.58594ZM94.5859 24V13.4336H96.4121V24H94.5859ZM104.127 13.2383C104.993 13.2383 105.735 13.4629 106.354 13.9121C106.972 14.3548 107.441 14.9831 107.76 15.7969C108.085 16.6042 108.248 17.5482 108.248 18.6289V18.834C108.248 19.8691 108.085 20.7936 107.76 21.6074C107.441 22.4147 106.972 23.0495 106.354 23.5117C105.735 23.9674 104.999 24.1953 104.146 24.1953C102.812 24.1953 101.78 23.7298 101.051 22.7988L100.963 24H99.293V9H101.119V14.5664C101.842 13.681 102.844 13.2383 104.127 13.2383ZM106.422 18.6289C106.422 17.4701 106.201 16.5358 105.758 15.8262C105.322 15.11 104.625 14.752 103.668 14.752C103.049 14.752 102.529 14.9017 102.105 15.2012C101.689 15.4941 101.36 15.8945 101.119 16.4023V21.0215C101.367 21.5228 101.702 21.9232 102.125 22.2227C102.555 22.5221 103.076 22.6719 103.688 22.6719C104.605 22.6719 105.289 22.3171 105.738 21.6074C106.194 20.8913 106.422 19.9668 106.422 18.834V18.6289ZM114.84 13.2383C114.957 13.2383 115.104 13.2546 115.279 13.2871C115.455 13.3132 115.576 13.3424 115.641 13.375V15.0449C115.361 14.9928 115.064 14.9668 114.752 14.9668C114.153 14.9668 113.652 15.1003 113.248 15.3672C112.851 15.6341 112.551 16.0085 112.35 16.4902V24H110.523V13.4336H112.301L112.34 14.6348C112.613 14.1921 112.958 13.8503 113.375 13.6094C113.792 13.362 114.28 13.2383 114.84 13.2383ZM125.045 21.6953C125.045 22.0664 125.077 22.4505 125.143 22.8477C125.208 23.2383 125.299 23.5703 125.416 23.8438V24H123.512C123.401 23.7461 123.316 23.3783 123.258 22.8965C122.893 23.2871 122.454 23.6029 121.939 23.8438C121.432 24.0781 120.872 24.1953 120.26 24.1953C119.557 24.1953 118.932 24.0586 118.385 23.7852C117.844 23.5052 117.424 23.1276 117.125 22.6523C116.832 22.1771 116.686 21.6497 116.686 21.0703C116.686 20.3216 116.878 19.6868 117.262 19.166C117.652 18.6452 118.202 18.2546 118.912 17.9941C119.628 17.7272 120.471 17.5938 121.441 17.5938H123.219V16.7539C123.219 16.1094 123.027 15.6048 122.643 15.2402C122.265 14.8691 121.718 14.6836 121.002 14.6836C120.566 14.6836 120.175 14.7617 119.83 14.918C119.485 15.0677 119.215 15.2728 119.02 15.5332C118.831 15.7871 118.736 16.0638 118.736 16.3633H116.91C116.91 15.849 117.086 15.3509 117.438 14.8691C117.789 14.3874 118.284 13.9967 118.922 13.6973C119.56 13.3913 120.289 13.2383 121.109 13.2383C121.891 13.2383 122.574 13.3717 123.16 13.6387C123.753 13.8991 124.215 14.2962 124.547 14.8301C124.879 15.3574 125.045 16.0052 125.045 16.7734V21.6953ZM120.523 22.6328C120.94 22.6328 121.327 22.5612 121.686 22.418C122.05 22.2682 122.363 22.0729 122.623 21.832C122.883 21.5911 123.082 21.3307 123.219 21.0508V18.8633H121.734C120.693 18.8633 119.895 19.0293 119.342 19.3613C118.788 19.6868 118.512 20.1719 118.512 20.8164C118.512 21.1615 118.59 21.4707 118.746 21.7441C118.902 22.0176 119.13 22.2357 119.43 22.3984C119.729 22.5547 120.094 22.6328 120.523 22.6328ZM132.203 13.2383C132.32 13.2383 132.467 13.2546 132.643 13.2871C132.818 13.3132 132.939 13.3424 133.004 13.375V15.0449C132.724 14.9928 132.428 14.9668 132.115 14.9668C131.516 14.9668 131.015 15.1003 130.611 15.3672C130.214 15.6341 129.915 16.0085 129.713 16.4902V24H127.887V13.4336H129.664L129.703 14.6348C129.977 14.1921 130.322 13.8503 130.738 13.6094C131.155 13.362 131.643 13.2383 132.203 13.2383ZM142.516 13.4336L138.277 25.6309C138.017 26.3405 137.639 26.9557 137.145 27.4766C136.656 28.0039 135.989 28.2676 135.143 28.2676C135.006 28.2676 134.827 28.248 134.605 28.209C134.391 28.1764 134.228 28.1439 134.117 28.1113V26.6562C134.189 26.6693 134.27 26.679 134.361 26.6855C134.452 26.6986 134.534 26.7051 134.605 26.7051C135.224 26.7051 135.702 26.5749 136.041 26.3145C136.386 26.0605 136.666 25.6113 136.881 24.9668L137.281 23.8828L133.512 13.4336H135.504L138.121 21.3438L140.572 13.4336H142.516Z" fill="black"/>
</svg>
