<svg width="161" height="46" viewBox="0 0 161 46" fill="none" xmlns="http://www.w3.org/2000/svg">
<path d="M0 2C0 0.89543 0.895431 0 2 0H159C160.105 0 161 0.895431 161 2V44C161 45.1046 160.105 46 159 46H2C0.895434 46 0 45.1046 0 44V2Z" fill="#444CE0"/>
<path d="M0 2C0 0.89543 0.895431 0 2 0H159C160.105 0 161 0.895431 161 2V44C161 45.1046 160.105 46 159 46H2C0.895434 46 0 45.1046 0 44V2Z" stroke="black"/>
<path d="M24.1897 26.6028V27.5898L24.9854 27.0059L29.8957 23.4031L30.4451 23L29.8957 22.5969L24.9854 18.9941L24.1897 18.4102V19.3972V26.6028ZM24.1152 17.947C24.1153 17.947 24.1154 17.9471 24.1155 17.9472L30.7517 22.8155C30.7517 22.8155 30.7518 22.8156 30.7519 22.8156C30.7839 22.8393 30.8276 22.9032 30.8276 23C30.8276 23.0967 30.784 23.1606 30.7519 23.1843C30.7519 23.1844 30.7518 23.1845 30.7517 23.1845L24.1159 28.0526C24.1157 28.0527 24.1156 28.0528 24.1154 28.0529C24.0991 28.0646 24.0887 28.0652 24.0862 28.0652C24.0838 28.0652 24.0812 28.0649 24.0779 28.064C24.0747 28.063 24.0698 28.0611 24.0631 28.057C24.0324 28.0372 23.9828 27.9739 23.9828 27.8696V18.1304C23.9828 18.0266 24.032 17.9631 24.0626 17.9429C24.0754 17.9352 24.0833 17.9348 24.0869 17.935C24.0908 17.9351 24.1004 17.9363 24.1152 17.947Z" fill="#424242" stroke="white"/>
<path d="M15.0345 22.8043H15.5345V22.3043V16.0435V15.5435H15.0345H10.2069H9.7069V16.0435V22.3043V22.8043H10.2069H15.0345ZM10.2069 23.1957H9.7069V23.6957V29.9565V30.4565H10.2069H15.0345H15.5345V29.9565V23.6957V23.1957H15.0345H10.2069ZM16.2414 7.8913H15.7414V8.3913V15.3478V23V30.6522V37.6087V38.1087H16.2414H36.7586H37.2586V37.6087V30.6522V23V15.3478V8.3913V7.8913H36.7586H16.2414ZM42.7931 22.8043H43.2931V22.3043V16.0435V15.5435H42.7931H37.9655H37.4655V16.0435V22.3043V22.8043H37.9655H42.7931ZM37.9655 23.1957H37.4655V23.6957V29.9565V30.4565H37.9655H42.7931H43.2931V29.9565V23.6957V23.1957H42.7931H37.9655ZM43.2931 8.3913V7.8913H42.7931H37.9655H37.4655V8.3913V14.6522V15.1522H37.9655H42.7931H43.2931V14.6522V8.3913ZM10.2069 7.8913H9.7069V8.3913V14.6522V15.1522H10.2069H15.0345H15.5345V14.6522V8.3913V7.8913H15.0345H10.2069ZM9.7069 37.6087V38.1087H10.2069H15.0345H15.5345V37.6087V31.3478V30.8478H15.0345H10.2069H9.7069V31.3478V37.6087ZM42.7931 38.1087H43.2931V37.6087V31.3478V30.8478H42.7931H37.9655H37.4655V31.3478V37.6087V38.1087H37.9655H42.7931ZM37.3621 7.5H43.3966C43.4002 7.5 43.4188 7.5005 43.4456 7.53133C43.4732 7.56315 43.5 7.61962 43.5 7.69565V15.3478V23V30.6522V38.3043C43.5 38.3804 43.4732 38.4369 43.4456 38.4687C43.4188 38.4995 43.4002 38.5 43.3966 38.5H37.3621H15.6379H9.60345C9.59981 38.5 9.58115 38.4995 9.5544 38.4687C9.52677 38.4369 9.5 38.3804 9.5 38.3043V30.6522V23V15.3478V7.69565C9.5 7.61962 9.52677 7.56315 9.5544 7.53133C9.58115 7.5005 9.59981 7.5 9.60345 7.5H15.6379H37.3621Z" fill="#424242" stroke="white"/>
<path d="M52.5449 18.3145V23.1875H58.4922V24.7109H52.5449V31H50.6504V16.7812H52.5449H59.459V18.3145H52.5449ZM62.5059 16.5859C62.8444 16.5859 63.1081 16.6836 63.2969 16.8789C63.4922 17.0742 63.5898 17.3216 63.5898 17.6211C63.5898 17.9141 63.4922 18.1582 63.2969 18.3535C63.1081 18.5423 62.8444 18.6367 62.5059 18.6367C62.1673 18.6367 61.9036 18.5423 61.7148 18.3535C61.5326 18.1582 61.4414 17.9141 61.4414 17.6211C61.4414 17.3216 61.5326 17.0742 61.7148 16.8789C61.9036 16.6836 62.1673 16.5859 62.5059 16.5859ZM61.5781 31V20.4336H63.4043V31H61.5781ZM66.4414 31V16H68.2676V31H66.4414ZM82.418 20.2383C83.5768 20.2383 84.4557 20.5475 85.0547 21.166C85.6536 21.7845 85.9531 22.748 85.9531 24.0566V31H84.127V24.0371C84.127 23.1973 83.9349 22.6081 83.5508 22.2695C83.1732 21.9245 82.6165 21.752 81.8809 21.752C81.4121 21.752 81.002 21.8529 80.6504 22.0547C80.2988 22.25 80.0221 22.5169 79.8203 22.8555C79.625 23.194 79.5046 23.5749 79.459 23.998V31H77.6328V24.0469C77.6328 22.5169 76.8809 21.752 75.377 21.752C74.7715 21.752 74.2702 21.8854 73.873 22.1523C73.4759 22.4128 73.1732 22.7773 72.9648 23.2461V31H71.1387V20.4336H72.8672L72.9258 21.5762C73.2904 21.1465 73.7331 20.8177 74.2539 20.5898C74.7747 20.3555 75.3704 20.2383 76.041 20.2383C76.7376 20.2383 77.3464 20.3783 77.8672 20.6582C78.3945 20.9316 78.7917 21.3516 79.0586 21.918C79.4232 21.3971 79.8887 20.987 80.4551 20.6875C81.028 20.388 81.6823 20.2383 82.418 20.2383ZM102.564 29.4766V31H95.4551H93.9316V16.7812H95.8262V29.4766H102.564ZM105.514 16.5859C105.852 16.5859 106.116 16.6836 106.305 16.8789C106.5 17.0742 106.598 17.3216 106.598 17.6211C106.598 17.9141 106.5 18.1582 106.305 18.3535C106.116 18.5423 105.852 18.6367 105.514 18.6367C105.175 18.6367 104.911 18.5423 104.723 18.3535C104.54 18.1582 104.449 17.9141 104.449 17.6211C104.449 17.3216 104.54 17.0742 104.723 16.8789C104.911 16.6836 105.175 16.5859 105.514 16.5859ZM104.586 31V20.4336H106.412V31H104.586ZM114.127 20.2383C114.993 20.2383 115.735 20.4629 116.354 20.9121C116.972 21.3548 117.441 21.9831 117.76 22.7969C118.085 23.6042 118.248 24.5482 118.248 25.6289V25.834C118.248 26.8691 118.085 27.7936 117.76 28.6074C117.441 29.4147 116.972 30.0495 116.354 30.5117C115.735 30.9674 114.999 31.1953 114.146 31.1953C112.812 31.1953 111.78 30.7298 111.051 29.7988L110.963 31H109.293V16H111.119V21.5664C111.842 20.681 112.844 20.2383 114.127 20.2383ZM116.422 25.6289C116.422 24.4701 116.201 23.5358 115.758 22.8262C115.322 22.11 114.625 21.752 113.668 21.752C113.049 21.752 112.529 21.9017 112.105 22.2012C111.689 22.4941 111.36 22.8945 111.119 23.4023V28.0215C111.367 28.5228 111.702 28.9232 112.125 29.2227C112.555 29.5221 113.076 29.6719 113.688 29.6719C114.605 29.6719 115.289 29.3171 115.738 28.6074C116.194 27.8913 116.422 26.9668 116.422 25.834V25.6289ZM124.84 20.2383C124.957 20.2383 125.104 20.2546 125.279 20.2871C125.455 20.3132 125.576 20.3424 125.641 20.375V22.0449C125.361 21.9928 125.064 21.9668 124.752 21.9668C124.153 21.9668 123.652 22.1003 123.248 22.3672C122.851 22.6341 122.551 23.0085 122.35 23.4902V31H120.523V20.4336H122.301L122.34 21.6348C122.613 21.1921 122.958 20.8503 123.375 20.6094C123.792 20.362 124.28 20.2383 124.84 20.2383ZM135.045 28.6953C135.045 29.0664 135.077 29.4505 135.143 29.8477C135.208 30.2383 135.299 30.5703 135.416 30.8438V31H133.512C133.401 30.7461 133.316 30.3783 133.258 29.8965C132.893 30.2871 132.454 30.6029 131.939 30.8438C131.432 31.0781 130.872 31.1953 130.26 31.1953C129.557 31.1953 128.932 31.0586 128.385 30.7852C127.844 30.5052 127.424 30.1276 127.125 29.6523C126.832 29.1771 126.686 28.6497 126.686 28.0703C126.686 27.3216 126.878 26.6868 127.262 26.166C127.652 25.6452 128.202 25.2546 128.912 24.9941C129.628 24.7272 130.471 24.5938 131.441 24.5938H133.219V23.7539C133.219 23.1094 133.027 22.6048 132.643 22.2402C132.265 21.8691 131.718 21.6836 131.002 21.6836C130.566 21.6836 130.175 21.7617 129.83 21.918C129.485 22.0677 129.215 22.2728 129.02 22.5332C128.831 22.7871 128.736 23.0638 128.736 23.3633H126.91C126.91 22.849 127.086 22.3509 127.438 21.8691C127.789 21.3874 128.284 20.9967 128.922 20.6973C129.56 20.3913 130.289 20.2383 131.109 20.2383C131.891 20.2383 132.574 20.3717 133.16 20.6387C133.753 20.8991 134.215 21.2962 134.547 21.8301C134.879 22.3574 135.045 23.0052 135.045 23.7734V28.6953ZM130.523 29.6328C130.94 29.6328 131.327 29.5612 131.686 29.418C132.05 29.2682 132.363 29.0729 132.623 28.832C132.883 28.5911 133.082 28.3307 133.219 28.0508V25.8633H131.734C130.693 25.8633 129.895 26.0293 129.342 26.3613C128.788 26.6868 128.512 27.1719 128.512 27.8164C128.512 28.1615 128.59 28.4707 128.746 28.7441C128.902 29.0176 129.13 29.2357 129.43 29.3984C129.729 29.5547 130.094 29.6328 130.523 29.6328ZM142.203 20.2383C142.32 20.2383 142.467 20.2546 142.643 20.2871C142.818 20.3132 142.939 20.3424 143.004 20.375V22.0449C142.724 21.9928 142.428 21.9668 142.115 21.9668C141.516 21.9668 141.015 22.1003 140.611 22.3672C140.214 22.6341 139.915 23.0085 139.713 23.4902V31H137.887V20.4336H139.664L139.703 21.6348C139.977 21.1921 140.322 20.8503 140.738 20.6094C141.155 20.362 141.643 20.2383 142.203 20.2383ZM152.516 20.4336L148.277 32.6309C148.017 33.3405 147.639 33.9557 147.145 34.4766C146.656 35.0039 145.989 35.2676 145.143 35.2676C145.006 35.2676 144.827 35.248 144.605 35.209C144.391 35.1764 144.228 35.1439 144.117 35.1113V33.6562C144.189 33.6693 144.27 33.679 144.361 33.6855C144.452 33.6986 144.534 33.7051 144.605 33.7051C145.224 33.7051 145.702 33.5749 146.041 33.3145C146.386 33.0605 146.666 32.6113 146.881 31.9668L147.281 30.8828L143.512 20.4336H145.504L148.121 28.3438L150.572 20.4336H152.516Z" fill="white"/>
</svg>
