<svg width="149" height="32" viewBox="0 0 149 32" fill="none" xmlns="http://www.w3.org/2000/svg">
<path d="M15.1897 19.6028V20.5898L15.9854 20.0059L20.8957 16.4031L21.4451 16L20.8957 15.5969L15.9854 11.9941L15.1897 11.4102V12.3972V19.6028ZM15.1152 10.947C15.1153 10.947 15.1154 10.9471 15.1155 10.9472L21.7517 15.8155C21.7517 15.8155 21.7518 15.8156 21.7519 15.8156C21.7839 15.8393 21.8276 15.9032 21.8276 16C21.8276 16.0967 21.784 16.1606 21.7519 16.1843C21.7519 16.1844 21.7518 16.1845 21.7517 16.1845L15.1159 21.0526C15.1157 21.0527 15.1156 21.0528 15.1154 21.0529C15.0991 21.0646 15.0887 21.0652 15.0862 21.0652C15.0838 21.0652 15.0812 21.0649 15.0779 21.064C15.0747 21.063 15.0698 21.0611 15.0631 21.057C15.0324 21.0372 14.9828 20.9739 14.9828 20.8696V11.1304C14.9828 11.0266 15.032 10.9631 15.0626 10.9429C15.0754 10.9352 15.0833 10.9348 15.0869 10.935C15.0908 10.9351 15.1004 10.9363 15.1152 10.947Z" fill="#424242" stroke="black"/>
<path d="M6.03448 15.8043H6.53448V15.3043V9.04348V8.54348H6.03448H1.2069H0.706897V9.04348V15.3043V15.8043H1.2069H6.03448ZM1.2069 16.1957H0.706897V16.6957V22.9565V23.4565H1.2069H6.03448H6.53448V22.9565V16.6957V16.1957H6.03448H1.2069ZM7.24138 0.891304H6.74138V1.3913V8.34783V16V23.6522V30.6087V31.1087H7.24138H27.7586H28.2586V30.6087V23.6522V16V8.34783V1.3913V0.891304H27.7586H7.24138ZM33.7931 15.8043H34.2931V15.3043V9.04348V8.54348H33.7931H28.9655H28.4655V9.04348V15.3043V15.8043H28.9655H33.7931ZM28.9655 16.1957H28.4655V16.6957V22.9565V23.4565H28.9655H33.7931H34.2931V22.9565V16.6957V16.1957H33.7931H28.9655ZM34.2931 1.3913V0.891304H33.7931H28.9655H28.4655V1.3913V7.65217V8.15217H28.9655H33.7931H34.2931V7.65217V1.3913ZM1.2069 0.891304H0.706897V1.3913V7.65217V8.15217H1.2069H6.03448H6.53448V7.65217V1.3913V0.891304H6.03448H1.2069ZM0.706897 30.6087V31.1087H1.2069H6.03448H6.53448V30.6087V24.3478V23.8478H6.03448H1.2069H0.706897V24.3478V30.6087ZM33.7931 31.1087H34.2931V30.6087V24.3478V23.8478H33.7931H28.9655H28.4655V24.3478V30.6087V31.1087H28.9655H33.7931ZM28.3621 0.5H34.3966C34.4002 0.5 34.4188 0.500505 34.4456 0.53133C34.4732 0.56315 34.5 0.619623 34.5 0.695652V8.34783V16V23.6522V31.3043C34.5 31.3804 34.4732 31.4369 34.4456 31.4687C34.4188 31.4995 34.4002 31.5 34.3966 31.5H28.3621H6.63793H0.603448C0.599806 31.5 0.581153 31.4995 0.554395 31.4687C0.526774 31.4369 0.5 31.3804 0.5 31.3043V23.6522V16V8.34783V0.695652C0.5 0.619623 0.526774 0.56315 0.554395 0.53133C0.581153 0.500505 0.599806 0.5 0.603448 0.5H6.63793H28.3621Z" fill="#424242" stroke="black"/>
<path d="M44.5449 11.3145V16.1875H50.4922V17.7109H44.5449V24H42.6504V9.78125H44.5449H51.459V11.3145H44.5449ZM54.5059 9.58594C54.8444 9.58594 55.1081 9.68359 55.2969 9.87891C55.4922 10.0742 55.5898 10.3216 55.5898 10.6211C55.5898 10.9141 55.4922 11.1582 55.2969 11.3535C55.1081 11.5423 54.8444 11.6367 54.5059 11.6367C54.1673 11.6367 53.9036 11.5423 53.7148 11.3535C53.5326 11.1582 53.4414 10.9141 53.4414 10.6211C53.4414 10.3216 53.5326 10.0742 53.7148 9.87891C53.9036 9.68359 54.1673 9.58594 54.5059 9.58594ZM53.5781 24V13.4336H55.4043V24H53.5781ZM58.4414 24V9H60.2676V24H58.4414ZM74.418 13.2383C75.5768 13.2383 76.4557 13.5475 77.0547 14.166C77.6536 14.7845 77.9531 15.748 77.9531 17.0566V24H76.127V17.0371C76.127 16.1973 75.9349 15.6081 75.5508 15.2695C75.1732 14.9245 74.6165 14.752 73.8809 14.752C73.4121 14.752 73.002 14.8529 72.6504 15.0547C72.2988 15.25 72.0221 15.5169 71.8203 15.8555C71.625 16.194 71.5046 16.5749 71.459 16.998V24H69.6328V17.0469C69.6328 15.5169 68.8809 14.752 67.377 14.752C66.7715 14.752 66.2702 14.8854 65.873 15.1523C65.4759 15.4128 65.1732 15.7773 64.9648 16.2461V24H63.1387V13.4336H64.8672L64.9258 14.5762C65.2904 14.1465 65.7331 13.8177 66.2539 13.5898C66.7747 13.3555 67.3704 13.2383 68.041 13.2383C68.7376 13.2383 69.3464 13.3783 69.8672 13.6582C70.3945 13.9316 70.7917 14.3516 71.0586 14.918C71.4232 14.3971 71.8887 13.987 72.4551 13.6875C73.028 13.388 73.6823 13.2383 74.418 13.2383ZM94.5645 22.4766V24H87.4551H85.9316V9.78125H87.8262V22.4766H94.5645ZM97.5137 9.58594C97.8522 9.58594 98.1159 9.68359 98.3047 9.87891C98.5 10.0742 98.5977 10.3216 98.5977 10.6211C98.5977 10.9141 98.5 11.1582 98.3047 11.3535C98.1159 11.5423 97.8522 11.6367 97.5137 11.6367C97.1751 11.6367 96.9115 11.5423 96.7227 11.3535C96.5404 11.1582 96.4492 10.9141 96.4492 10.6211C96.4492 10.3216 96.5404 10.0742 96.7227 9.87891C96.9115 9.68359 97.1751 9.58594 97.5137 9.58594ZM96.5859 24V13.4336H98.4121V24H96.5859ZM106.127 13.2383C106.993 13.2383 107.735 13.4629 108.354 13.9121C108.972 14.3548 109.441 14.9831 109.76 15.7969C110.085 16.6042 110.248 17.5482 110.248 18.6289V18.834C110.248 19.8691 110.085 20.7936 109.76 21.6074C109.441 22.4147 108.972 23.0495 108.354 23.5117C107.735 23.9674 106.999 24.1953 106.146 24.1953C104.812 24.1953 103.78 23.7298 103.051 22.7988L102.963 24H101.293V9H103.119V14.5664C103.842 13.681 104.844 13.2383 106.127 13.2383ZM108.422 18.6289C108.422 17.4701 108.201 16.5358 107.758 15.8262C107.322 15.11 106.625 14.752 105.668 14.752C105.049 14.752 104.529 14.9017 104.105 15.2012C103.689 15.4941 103.36 15.8945 103.119 16.4023V21.0215C103.367 21.5228 103.702 21.9232 104.125 22.2227C104.555 22.5221 105.076 22.6719 105.688 22.6719C106.605 22.6719 107.289 22.3171 107.738 21.6074C108.194 20.8913 108.422 19.9668 108.422 18.834V18.6289ZM116.84 13.2383C116.957 13.2383 117.104 13.2546 117.279 13.2871C117.455 13.3132 117.576 13.3424 117.641 13.375V15.0449C117.361 14.9928 117.064 14.9668 116.752 14.9668C116.153 14.9668 115.652 15.1003 115.248 15.3672C114.851 15.6341 114.551 16.0085 114.35 16.4902V24H112.523V13.4336H114.301L114.34 14.6348C114.613 14.1921 114.958 13.8503 115.375 13.6094C115.792 13.362 116.28 13.2383 116.84 13.2383ZM127.045 21.6953C127.045 22.0664 127.077 22.4505 127.143 22.8477C127.208 23.2383 127.299 23.5703 127.416 23.8438V24H125.512C125.401 23.7461 125.316 23.3783 125.258 22.8965C124.893 23.2871 124.454 23.6029 123.939 23.8438C123.432 24.0781 122.872 24.1953 122.26 24.1953C121.557 24.1953 120.932 24.0586 120.385 23.7852C119.844 23.5052 119.424 23.1276 119.125 22.6523C118.832 22.1771 118.686 21.6497 118.686 21.0703C118.686 20.3216 118.878 19.6868 119.262 19.166C119.652 18.6452 120.202 18.2546 120.912 17.9941C121.628 17.7272 122.471 17.5938 123.441 17.5938H125.219V16.7539C125.219 16.1094 125.027 15.6048 124.643 15.2402C124.265 14.8691 123.718 14.6836 123.002 14.6836C122.566 14.6836 122.175 14.7617 121.83 14.918C121.485 15.0677 121.215 15.2728 121.02 15.5332C120.831 15.7871 120.736 16.0638 120.736 16.3633H118.91C118.91 15.849 119.086 15.3509 119.438 14.8691C119.789 14.3874 120.284 13.9967 120.922 13.6973C121.56 13.3913 122.289 13.2383 123.109 13.2383C123.891 13.2383 124.574 13.3717 125.16 13.6387C125.753 13.8991 126.215 14.2962 126.547 14.8301C126.879 15.3574 127.045 16.0052 127.045 16.7734V21.6953ZM122.523 22.6328C122.94 22.6328 123.327 22.5612 123.686 22.418C124.05 22.2682 124.363 22.0729 124.623 21.832C124.883 21.5911 125.082 21.3307 125.219 21.0508V18.8633H123.734C122.693 18.8633 121.895 19.0293 121.342 19.3613C120.788 19.6868 120.512 20.1719 120.512 20.8164C120.512 21.1615 120.59 21.4707 120.746 21.7441C120.902 22.0176 121.13 22.2357 121.43 22.3984C121.729 22.5547 122.094 22.6328 122.523 22.6328ZM134.203 13.2383C134.32 13.2383 134.467 13.2546 134.643 13.2871C134.818 13.3132 134.939 13.3424 135.004 13.375V15.0449C134.724 14.9928 134.428 14.9668 134.115 14.9668C133.516 14.9668 133.015 15.1003 132.611 15.3672C132.214 15.6341 131.915 16.0085 131.713 16.4902V24H129.887V13.4336H131.664L131.703 14.6348C131.977 14.1921 132.322 13.8503 132.738 13.6094C133.155 13.362 133.643 13.2383 134.203 13.2383ZM144.516 13.4336L140.277 25.6309C140.017 26.3405 139.639 26.9557 139.145 27.4766C138.656 28.0039 137.989 28.2676 137.143 28.2676C137.006 28.2676 136.827 28.248 136.605 28.209C136.391 28.1764 136.228 28.1439 136.117 28.1113V26.6562C136.189 26.6693 136.27 26.679 136.361 26.6855C136.452 26.6986 136.534 26.7051 136.605 26.7051C137.224 26.7051 137.702 26.5749 138.041 26.3145C138.386 26.0605 138.666 25.6113 138.881 24.9668L139.281 23.8828L135.512 13.4336H137.504L140.121 21.3438L142.572 13.4336H144.516Z" fill="black"/>
</svg>
